<?xml version="1.0" encoding="UTF-8"?>
<svg version="1.1" xmlns="http://www.w3.org/2000/svg" width="600" height="600">
<path d="M0 0 C198 0 396 0 600 0 C600 198 600 396 600 600 C402 600 204 600 0 600 C0 402 0 204 0 0 Z " fill="#A7A6A7" transform="translate(0,0)"/>
<path d="M0 0 C198 0 396 0 600 0 C600 198 600 396 600 600 C402 600 204 600 0 600 C0 402 0 204 0 0 Z M261 26 C260.01241699 26.14074951 259.02483398 26.28149902 258.00732422 26.42651367 C213.34077851 32.95223591 171.02974846 50.87098397 135 78 C134.4229834 78.43280273 133.8459668 78.86560547 133.25146484 79.31152344 C124.34437268 86.03543255 116.02084212 93.24423666 108 101 C107.01217529 101.95495361 107.01217529 101.95495361 106.00439453 102.92919922 C98.13941922 110.57412393 90.5795066 118.19938607 84 127 C83.23816406 127.95648438 82.47632813 128.91296875 81.69140625 129.8984375 C64.45342042 151.56924266 49.91681574 176.66572564 41.046875 202.94140625 C40.10834371 205.68345849 39.06239799 208.33053054 37.9375 211 C30.80992136 228.63288531 27.5003575 248.22481146 25 267 C24.90283691 267.69287109 24.80567383 268.38574219 24.70556641 269.09960938 C23.60471507 278.18311521 23.75607037 287.36429851 23.75 296.5 C23.74932526 297.41250519 23.74865051 298.32501038 23.74795532 299.26516724 C23.76566907 314.38823835 24.56405213 329.04991913 27 344 C27.23348145 345.54421631 27.23348145 345.54421631 27.47167969 347.11962891 C31.27504724 371.84910955 38.7378092 398.63299444 50.9375 420.5625 C53.33955913 424.90790881 55.61635725 429.26136386 57.78125 433.73046875 C60.93049208 440.05711084 64.6129187 445.89698865 68.5625 451.75 C69.61087036 453.31089355 69.61087036 453.31089355 70.68041992 454.90332031 C76.65106437 463.68587564 83.01439709 472.00487675 90 480 C90.45648926 480.52416504 90.91297852 481.04833008 91.38330078 481.58837891 C96.97571967 487.95554047 102.90335515 493.99134982 108.875 500 C109.50583496 500.63558838 110.13666992 501.27117676 110.78662109 501.92602539 C116.12804374 508.07520303 116.12804374 508.07520303 123 511 C123.34611328 509.74848145 123.34611328 509.74848145 123.69921875 508.47167969 C134.34903108 470.21864826 148.38068651 437.48051112 177 409 C177.90105469 408.09894531 178.80210937 407.19789063 179.73046875 406.26953125 C195.68549488 391.08691183 215.28331742 379.32008293 236 372 C237.60653504 371.3180527 239.21081672 370.6307659 240.8125 369.9375 C281.92464755 353.49264098 330.86132323 357.41664657 370.9375 374.375 C410.11270489 391.55496712 445.63388174 424.15008904 461.8203125 464.3515625 C462.85268913 467.04489612 463.82395133 469.75557544 464.76953125 472.48046875 C465.76513394 475.32820851 466.85620328 478.05184465 468.0625 480.8125 C470.94695293 487.88484065 472.5625282 495.41318595 474.43066406 502.80224609 C475.22948846 505.88587268 476.10764109 508.94223806 477 512 C483.47799111 507.55586414 488.98749435 502.32245 494.50854492 496.75219727 C495.92480012 495.32529535 497.35133705 493.90931789 498.77929688 492.49414062 C504.95015131 486.30613302 510.58809736 479.85801481 516 473 C516.48170654 472.40324463 516.96341309 471.80648926 517.4597168 471.19165039 C524.67837638 462.24525079 530.92106627 452.74457276 537 443 C537.61488281 442.02933594 538.22976563 441.05867188 538.86328125 440.05859375 C557.79249717 409.02190798 568.80892837 373.77040957 574 338 C574.12004395 337.23236328 574.24008789 336.46472656 574.36376953 335.67382812 C585.13666595 265.73830385 564.03104894 192.65057316 522.98046875 135.9765625 C518.60848538 130.0646267 513.86773741 124.50588591 509 119 C508.29875 118.18789062 507.5975 117.37578125 506.875 116.5390625 C496.5445842 104.76082327 485.43004491 93.55322229 473 84 C472.02160156 83.21625 471.04320312 82.4325 470.03515625 81.625 C461.43589813 74.78272422 452.33284011 68.79080157 443 63 C442.22551514 62.5160376 441.45103027 62.0320752 440.65307617 61.53344727 C434.5092866 57.76103028 428.20349092 54.5161788 421.6875 51.4375 C420.68001709 50.95861328 419.67253418 50.47972656 418.63452148 49.98632812 C411.52749899 46.64077008 404.40424652 43.62896964 397 41 C395.824375 40.53722656 394.64875 40.07445313 393.4375 39.59765625 C387.88119978 37.50854514 382.15794795 36.0049769 376.4375 34.4375 C374.24866963 33.83213353 372.05986679 33.22666748 369.87109375 32.62109375 C368.83815186 32.33854736 367.80520996 32.05600098 366.7409668 31.76489258 C364.66536954 31.18567763 362.60252198 30.56052162 360.546875 29.9140625 C355.03655856 28.49400298 349.44011094 27.74938243 343.8125 26.9375 C342.65685547 26.76412109 341.50121094 26.59074219 340.31054688 26.41210938 C326.97711856 24.45813701 313.9131805 23.81347859 300.45654297 23.81469727 C297.76904333 23.81251546 295.08195848 23.79430925 292.39453125 23.77539062 C281.74697072 23.74030634 271.52797885 24.3760889 261 26 Z " fill="#FBFBFB" transform="translate(0,0)"/>
<path d="M0 0 C20.43503245 17.38015823 32.98859044 41.13298391 35.51953125 67.875 C37.37377317 96.69521724 26.90847832 122.37925695 8.625 144.25 C-4.74852939 158.78982555 -22.73100959 167.89297851 -41.6875 172.6875 C-42.64269531 172.93242187 -43.59789062 173.17734375 -44.58203125 173.4296875 C-68.61360843 178.44915856 -94.92975796 173.55764585 -115.625 160.5625 C-138.82530578 145.33052354 -154.43406349 124.06690482 -160.9375 96.875 C-161.78185821 92.4938961 -162.41377587 88.14173811 -162.6875 83.6875 C-162.76484375 82.43453125 -162.8421875 81.1815625 -162.921875 79.890625 C-164.04791593 52.1075475 -153.22375947 27.02064177 -134.6875 6.6875 C-98.30165558 -30.75031612 -40.24392625 -31.57600368 0 0 Z " fill="#F2F4F4" transform="translate(363.6875,162.3125)"/>
</svg>
